<?xml version="1.0" encoding="UTF-8"?>
<svg version="1.1" xmlns="http://www.w3.org/2000/svg" width="512" height="512">
<path d="M0 0 C1.53475986 3.06951972 1.20948811 5.59930961 1 9 C-0.171875 12.3671875 -0.171875 12.3671875 -1.75 15.875 C-4.16019422 21.48998932 -5.94859371 27.04305418 -7.3125 33 C-7.55081543 34.04003174 -7.55081543 34.04003174 -7.79394531 35.10107422 C-14.59131881 66.06273704 -7.53627238 97.31589227 9 124 C11.68860526 127.94432122 14.78642822 131.47654808 18 135 C18.99 136.21816406 18.99 136.21816406 20 137.4609375 C29.06018198 148.34001965 41.28668651 156.89605438 54 163 C55.26457031 163.63808594 55.26457031 163.63808594 56.5546875 164.2890625 C72.14250946 171.82857283 88.46161753 175.4017554 105.75 175.3125 C106.88671143 175.30758545 108.02342285 175.3026709 109.19458008 175.29760742 C124.80166303 175.08125844 139.417512 171.74787904 153.6953125 165.36328125 C157.41159317 163.83020565 160.01697862 163.60950771 164 164 C166 166 166 166 166.375 169.16796875 C165.93643718 173.64953261 164.38623726 176.61199816 162 180.3125 C161.59136719 180.96694092 161.18273437 181.62138184 160.76171875 182.2956543 C157.2259267 187.86001125 153.3255852 193.02307185 149 198 C148.29101562 198.83015625 147.58203125 199.6603125 146.8515625 200.515625 C130.73908093 218.94604252 111.08689789 231.23399352 87.75 238.375 C86.97116455 238.61379883 86.1923291 238.85259766 85.38989258 239.09863281 C73.96980026 242.38769556 62.59760328 243.36782939 50.75 243.3125 C49.47729248 243.30686035 48.20458496 243.3012207 46.89331055 243.29541016 C11.79275942 242.84399924 -19.47361443 227.52638557 -44.15625 202.84375 C-45.86204812 200.95186481 -47.44512539 199.01744981 -49 197 C-49.61875 196.21753906 -50.2375 195.43507813 -50.875 194.62890625 C-72.20103627 166.59683123 -81.83814569 131.6369808 -77.17749023 96.64501953 C-71.93448734 62.24110088 -53.78544818 31.24583977 -25.6171875 10.51171875 C-21.71658256 7.74526299 -17.68925571 5.22648763 -13.5625 2.8125 C-12.90048584 2.41353516 -12.23847168 2.01457031 -11.55639648 1.60351562 C-7.34169488 -0.76675355 -4.6474565 -1.54915217 0 0 Z M-27 27 C-27.75152344 27.60070312 -28.50304687 28.20140625 -29.27734375 28.8203125 C-50.97336254 46.94610035 -63.92918563 75.98866031 -66.46484375 103.7421875 C-68.62155014 132.02970262 -62.01677576 160.01416142 -45 183 C-44.09507812 184.23943359 -44.09507812 184.23943359 -43.171875 185.50390625 C-35.07416458 196.10238018 -25.45122351 206.07112146 -14 213 C-13.42942871 213.3501416 -12.85885742 213.7002832 -12.27099609 214.06103516 C1.70763912 222.56268243 15.81064642 228.23887098 32 231 C33.07636719 231.18433594 34.15273437 231.36867188 35.26171875 231.55859375 C65.88817287 235.17488353 96.71520088 227.63057211 121.25 208.75 C125.08928561 205.70642125 128.57343247 202.49853098 132 199 C132.74121094 198.29359375 133.48242188 197.5871875 134.24609375 196.859375 C134.96925781 196.16328125 135.69242188 195.4671875 136.4375 194.75 C137.15808594 194.06421875 137.87867188 193.3784375 138.62109375 192.671875 C141.84285927 189.05334033 144.3941459 185.07527087 147 181 C146.33170166 181.14622803 145.66340332 181.29245605 144.97485352 181.44311523 C111.30429645 188.72487507 79.4551639 188.93517939 48 173 C47.09991211 172.54584717 47.09991211 172.54584717 46.18164062 172.08251953 C16.27201237 156.67922406 -5.43553255 129.92457454 -15.78515625 98.08984375 C-17.60920042 92.14798823 -18.9435902 86.12565682 -20 80 C-20.18433594 78.989375 -20.36867187 77.97875 -20.55859375 76.9375 C-22.38111382 60.67997582 -21.75062734 43.91729653 -18 28 C-17.78730469 27.00226563 -17.57460937 26.00453125 -17.35546875 24.9765625 C-16.92828623 22.9789464 -16.46989167 20.98800322 -16 19 C-19.43891318 19 -24.43052787 24.88740414 -27 27 Z " fill="#000000" transform="translate(214,135)"/>
</svg>
