<?xml version="1.0" encoding="UTF-8"?>
<svg version="1.1" xmlns="http://www.w3.org/2000/svg" width="225" height="225">
<path d="M0 0 C74.25 0 148.5 0 225 0 C225 74.25 225 148.5 225 225 C150.75 225 76.5 225 0 225 C0 150.75 0 76.5 0 0 Z " fill="#FDFDFD" transform="translate(0,0)"/>
<path d="M0 0 C0.79148438 0.43570313 1.58296875 0.87140625 2.3984375 1.3203125 C10.83556856 6.44986394 16.54099623 14.40844474 19.58203125 23.796875 C21.80594707 35.51919763 19.59665309 45.44002233 13.4609375 55.53125 C9.30916076 61.43425011 4.4097628 64.81553186 -2 68 C-2.62390625 68.3403125 -3.2478125 68.680625 -3.890625 69.03125 C-11.48908492 72.59922249 -21.79455393 72.20745711 -29.75 70 C-39.06805776 66.23050215 -46.37282427 59.86751361 -51 51 C-51.41121094 50.25234375 -51.82242188 49.5046875 -52.24609375 48.734375 C-56.49294442 39.85860405 -56.45160166 29.49031595 -53.5 20.1875 C-48.89272482 9.32403009 -40.7428912 1.54963863 -29.875 -2.875 C-19.84334097 -5.80895282 -9.12431022 -5.04815789 0 0 Z " fill="#FBFBFB" transform="translate(130,79)"/>
<path d="M0 0 C8.87046309 7.16526728 15.17350483 18.16341927 16.69921875 29.4375 C17.40165447 44.43368584 15.25883593 56.68325638 5.51171875 68.75 C-2.70588655 77.49601007 -13.91233664 83.04068689 -25.8515625 83.60546875 C-40.67897977 83.6824543 -52.21147811 80.89892345 -63.453125 70.48828125 C-74.51782449 58.20716659 -76.9298392 45.469977 -76.30078125 29.4375 C-75.32182053 18.79732039 -69.16174206 8.51985136 -61.30078125 1.4375 C-42.01550261 -12.72023041 -19.89982213 -13.51431044 0 0 Z M-47.30078125 3.4375 C-48.0690625 3.83839844 -48.83734375 4.23929688 -49.62890625 4.65234375 C-57.76113893 9.4238068 -64.3989686 17.69333375 -66.89453125 26.87109375 C-68.96762006 39.96743366 -66.75634509 50.4180136 -59.17578125 61.25 C-52.66317718 69.07081275 -43.84741637 73.75179952 -33.7578125 74.80859375 C-21.80966596 75.02629846 -12.51557042 72.15815764 -3.26953125 64.453125 C0.21098231 60.88974207 2.49519285 56.87380854 4.69921875 52.4375 C5.03953125 51.81359375 5.37984375 51.1896875 5.73046875 50.546875 C9.29844124 42.94841508 8.90667586 32.64294607 6.69921875 24.6875 C2.36007531 13.99100688 -5.30812581 6.56703864 -15.41015625 1.34765625 C-25.62031975 -2.8170157 -37.76173009 -1.80897814 -47.30078125 3.4375 Z " fill="#040404" transform="translate(142.30078125,75.5625)"/>
<path d="M0 0 C3.36335594 1.45745424 5.54534005 3.31117854 8.109375 5.9140625 C8.86347656 6.67460937 9.61757812 7.43515625 10.39453125 8.21875 C11.17183594 9.0128125 11.94914062 9.806875 12.75 10.625 C13.54277344 11.42679688 14.33554688 12.22859375 15.15234375 13.0546875 C17.10614493 15.03202846 19.05512103 17.01388909 21 19 C18.03 22.465 18.03 22.465 15 26 C7.84198775 20.17371096 1.47408234 13.5617015 -5 7 C-3.64062915 4.1394109 -2.35479531 2.14072301 0 0 Z " fill="#020202" transform="translate(161,156)"/>
<path d="M0 0 C2.8605891 1.35937085 4.85927699 2.64520469 7 5 C5.54254576 8.36335594 3.68882146 10.54534005 1.0859375 13.109375 C0.32539062 13.86347656 -0.43515625 14.61757812 -1.21875 15.39453125 C-2.0128125 16.17183594 -2.806875 16.94914062 -3.625 17.75 C-4.42679688 18.54277344 -5.22859375 19.33554688 -6.0546875 20.15234375 C-8.03202846 22.10614493 -10.01388909 24.05512103 -12 26 C-14.31 24.02 -16.62 22.04 -19 20 C-13.17371096 12.84198775 -6.5617015 6.47408234 0 0 Z " fill="#020202" transform="translate(62,156)"/>
<path d="M0 0 C2.31 1.98 4.62 3.96 7 6 C1.17371096 13.15801225 -5.4382985 19.52591766 -12 26 C-14.8605891 24.64062915 -16.85927699 23.35479531 -19 21 C-17.54254576 17.63664406 -15.68882146 15.45465995 -13.0859375 12.890625 C-12.32539063 12.13652344 -11.56484375 11.38242187 -10.78125 10.60546875 C-9.9871875 9.82816406 -9.193125 9.05085938 -8.375 8.25 C-7.57320312 7.45722656 -6.77140625 6.66445313 -5.9453125 5.84765625 C-3.96797154 3.89385507 -1.98611091 1.94487897 0 0 Z " fill="#020202" transform="translate(175,43)"/>
<path d="M0 0 C7.15801225 5.82628904 13.52591766 12.4382985 20 19 C18.64062915 21.8605891 17.35479531 23.85927699 15 26 C11.63664406 24.54254576 9.45465995 22.68882146 6.890625 20.0859375 C6.13652344 19.32539062 5.38242187 18.56484375 4.60546875 17.78125 C3.82816406 16.9871875 3.05085938 16.193125 2.25 15.375 C1.06083984 14.17230469 1.06083984 14.17230469 -0.15234375 12.9453125 C-2.10614493 10.96797154 -4.05512103 8.98611091 -6 7 C-4.02 4.69 -2.04 2.38 0 0 Z " fill="#020202" transform="translate(49,43)"/>
<path d="M0 0 C2.97 0 5.94 0 9 0 C9 9.24 9 18.48 9 28 C6.03 28 3.06 28 0 28 C0 18.76 0 9.52 0 0 Z " fill="#000000" transform="translate(108,178)"/>
<path d="M0 0 C9.24 0 18.48 0 28 0 C28 2.97 28 5.94 28 9 C18.76 9 9.52 9 0 9 C0 6.03 0 3.06 0 0 Z " fill="#000000" transform="translate(178,108)"/>
<path d="M0 0 C9.24 0 18.48 0 28 0 C28 2.97 28 5.94 28 9 C18.76 9 9.52 9 0 9 C0 6.03 0 3.06 0 0 Z " fill="#000000" transform="translate(19,108)"/>
<path d="M0 0 C2.97 0 5.94 0 9 0 C9 9.24 9 18.48 9 28 C6.03 28 3.06 28 0 28 C0 18.76 0 9.52 0 0 Z " fill="#000000" transform="translate(108,19)"/>
</svg>
